<svg width="22" height="22" viewBox="0 0 22 22" fill="none" xmlns="http://www.w3.org/2000/svg">
<path d="M15.6289 13.1682C16.277 11.251 16.2764 9.15258 15.6089 7.22609C15.4778 6.84767 15.0602 6.65137 14.6833 6.78657L14.6618 6.79423C14.2862 6.92898 14.0954 7.34103 14.2256 7.7182C14.7829 9.33295 14.7821 11.0912 14.2386 12.6972C14.1222 13.0412 14.2781 13.4181 14.6042 13.578L14.6249 13.5881C15.0176 13.7807 15.4888 13.5826 15.6289 13.1682Z" fill="url(#paint0_radial)"/>
<path d="M17.7892 14.2335C18.7116 11.7324 18.7455 8.9633 17.8653 6.43035C17.7317 6.04582 17.3083 5.84545 16.9251 5.98282L16.9249 5.98293C16.5463 6.11861 16.3476 6.53375 16.4796 6.91358C17.2494 9.12785 17.2182 11.5494 16.4091 13.7351C16.2792 14.0861 16.4398 14.4783 16.7758 14.6432C17.1682 14.8356 17.638 14.6435 17.7892 14.2335Z" fill="url(#paint1_radial)"/>
<path d="M11.0817 2.50163C10.5709 2.26237 9.9844 2.33806 9.55108 2.69918L5.50441 6.07138H2.80175C2.00874 6.07138 1.36362 6.71651 1.36362 7.50952V13.5814C1.36362 14.3744 2.00874 15.0195 2.80175 15.0195H5.50444L9.55111 18.3917C9.98488 18.7532 10.5715 18.8283 11.0818 18.5893C11.5926 18.3501 11.9099 17.851 11.9099 17.287V3.80396C11.9098 3.23989 11.5925 2.74089 11.0817 2.50163ZM5.19861 14.0671H2.80175C2.53744 14.0671 2.32237 13.8457 2.32237 13.5814V7.50952C2.32237 7.2452 2.53744 7.03014 2.80175 7.03014H5.19861V14.0671ZM10.9511 17.2869C10.9511 17.5697 10.7399 17.6907 10.6751 17.721C10.6103 17.7514 10.3822 17.8363 10.1649 17.6551L6.15737 14.3156V6.77529L10.1649 3.43571C10.3822 3.25462 10.6104 3.33951 10.6751 3.36984C10.7398 3.40017 10.9511 3.52111 10.9511 3.80396V17.2869Z" fill="url(#paint2_radial)"/>
<line x1="19.3995" y1="1.58753" x2="1.65363" y2="20.3285" stroke="url(#paint3_radial)" stroke-width="1.2" stroke-linecap="round"/>
<defs>
<radialGradient id="paint0_radial" cx="0" cy="0" r="1" gradientUnits="userSpaceOnUse" gradientTransform="translate(-7.85707 -13.9305) rotate(40.5513) scale(44.6171 6.72259)">
<stop offset="0.102095" stop-color="#969DC6"/>
<stop offset="0.921875" stop-color="#C7CBE7"/>
</radialGradient>
<radialGradient id="paint1_radial" cx="0" cy="0" r="1" gradientUnits="userSpaceOnUse" gradientTransform="translate(-11.0962 -19.5509) rotate(40.4437) scale(55.2722 8.44583)">
<stop offset="0.102095" stop-color="#969DC6"/>
<stop offset="0.921875" stop-color="#C7CBE7"/>
</radialGradient>
<radialGradient id="paint2_radial" cx="0" cy="0" r="1" gradientUnits="userSpaceOnUse" gradientTransform="translate(8.24161 108.727) rotate(-95.2036) scale(131.451 13.9442)">
<stop offset="0.102095" stop-color="#969DC6"/>
<stop offset="0.921875" stop-color="#C7CBE7"/>
</radialGradient>
<radialGradient id="paint3_radial" cx="0" cy="0" r="1" gradientUnits="userSpaceOnUse" gradientTransform="translate(2.54508 9.06076) rotate(-31.8799) scale(31.5633 9.089)">
<stop offset="0.102095" stop-color="#969DC6"/>
<stop offset="0.921875" stop-color="#C7CBE7"/>
</radialGradient>
</defs>
</svg>
