<svg width="22" height="22" viewBox="0 0 22 22" fill="none" xmlns="http://www.w3.org/2000/svg">
<g clip-path="url(#clip0)">
<path d="M7.18854 2.32321C5.42379 3.31385 4.01968 4.87333 3.22613 6.75139C3.07025 7.1203 3.24914 7.54566 3.61971 7.69754L3.64076 7.70619C4.01001 7.85747 4.42758 7.67904 4.58328 7.31167C5.25001 5.73894 6.42747 4.43313 7.90624 3.60375C8.22298 3.42605 8.35935 3.04172 8.22409 2.70465L8.21548 2.6833C8.05266 2.27728 7.56993 2.10912 7.18854 2.32321Z" fill="url(#paint0_radial)"/>
<path d="M6.29637 0.0857842C3.93703 1.3266 2.05842 3.36131 1.01698 5.83234C0.858889 6.20746 1.03936 6.63973 1.41602 6.79417L1.41627 6.79425C1.78833 6.94681 2.21383 6.77137 2.36996 6.4008C3.2801 4.24043 4.92409 2.46221 6.9882 1.37978C7.31964 1.20596 7.46283 0.80706 7.32352 0.459717C7.16078 0.0541224 6.68317 -0.117652 6.29637 0.0857842Z" fill="url(#paint1_radial)"/>
<path d="M11.2394 21.8182C12.8365 21.8182 14.1371 20.5185 14.1371 18.9205C14.1371 18.6005 13.8774 18.3409 13.5575 18.3409C13.2376 18.3409 12.978 18.6005 12.978 18.9205C12.978 19.8795 12.1975 20.6591 11.2394 20.6591C10.2812 20.6591 9.50071 19.8795 9.50071 18.9205C9.50071 18.6005 9.24108 18.3409 8.92117 18.3409C8.60126 18.3409 8.34162 18.6005 8.34162 18.9205C8.34162 20.5185 9.64206 21.8182 11.2394 21.8182Z" fill="url(#paint2_radial)"/>
<path d="M4.86439 19.5H17.6144C18.36 19.5 18.9666 18.8934 18.9666 18.1478C18.9666 17.752 18.7943 17.3774 18.4938 17.12C18.4744 17.103 18.4536 17.0876 18.4319 17.0736C17.2976 16.0837 16.6484 14.6596 16.6484 13.1558V11C16.6484 8.01733 14.2213 5.59091 11.2394 5.59091C11.1157 5.59091 10.982 5.59318 10.8584 5.61412C10.5424 5.66661 10.329 5.96572 10.3817 6.28096C10.4342 6.5962 10.7387 6.80957 11.0485 6.75694C11.1103 6.74689 11.1783 6.75 11.2394 6.75C13.5822 6.75 15.4893 8.65631 15.4893 11V13.1558C15.4893 15.0228 16.3077 16.7893 17.7325 18.0016C17.7441 18.011 17.7542 18.0194 17.7666 18.0279C17.7874 18.0543 17.8075 18.0944 17.8075 18.1478C17.8075 18.2528 17.7194 18.3409 17.6144 18.3409H4.86439C4.75926 18.3409 4.67111 18.2528 4.67111 18.1478C4.67111 18.0936 4.6912 18.0543 4.71285 18.0279C4.72445 18.0194 4.7345 18.011 4.7461 18.0016C6.17176 16.7885 6.98929 14.9774 6.98929 13.1558V10.3636C6.98929 10.0437 6.72966 9.78409 6.40975 9.78409C6.08984 9.78409 5.8302 10.0437 5.8302 10.3636V13.1558C5.8302 14.6605 5.18034 16.0853 4.04445 17.076C4.02365 17.0899 4.00356 17.1046 3.98502 17.1208C3.68436 17.3774 3.51202 17.752 3.51202 18.1478C3.51202 18.8934 4.11859 19.5 4.86439 19.5Z" fill="url(#paint3_radial)"/>
</g>
<defs>
<radialGradient id="paint0_radial" cx="0" cy="0" r="1" gradientUnits="userSpaceOnUse" gradientTransform="translate(6.49998 38.1765) rotate(-97.4336) scale(44.6171 6.72259)">
<stop offset="0.102095" stop-color="#969DC6"/>
<stop offset="0.921875" stop-color="#C7CBE7"/>
</radialGradient>
<radialGradient id="paint1_radial" cx="0" cy="0" r="1" gradientUnits="userSpaceOnUse" gradientTransform="translate(5.14459 44.5203) rotate(-97.5412) scale(55.2722 8.44583)">
<stop offset="0.102095" stop-color="#969DC6"/>
<stop offset="0.921875" stop-color="#C7CBE7"/>
</radialGradient>
<radialGradient id="paint2_radial" cx="0" cy="0" r="1" gradientUnits="userSpaceOnUse" gradientTransform="translate(10.3574 40.9432) rotate(-76.7479) scale(28.5792 7.48956)">
<stop offset="0.102095" stop-color="#969DC6"/>
<stop offset="0.921875" stop-color="#C7CBE7"/>
</radialGradient>
<radialGradient id="paint3_radial" cx="0" cy="0" r="1" gradientUnits="userSpaceOnUse" gradientTransform="translate(8.88753 96) rotate(-81.0771) scale(112.636 20.2703)">
<stop offset="0.102095" stop-color="#969DC6"/>
<stop offset="0.921875" stop-color="#C7CBE7"/>
</radialGradient>
<clipPath id="clip0">
<rect width="21.8182" height="21.8182" fill="white" transform="translate(0.0909119)"/>
</clipPath>
</defs>
</svg>
