<svg width="21" height="17" viewBox="0 0 21 17" fill="none" xmlns="http://www.w3.org/2000/svg">
<path d="M14.6289 11.1682C15.277 9.25103 15.2764 7.15258 14.6089 5.22609C14.4778 4.84767 14.0602 4.65137 13.6833 4.78657L13.6618 4.79423C13.2862 4.92898 13.0954 5.34103 13.2256 5.7182C13.7829 7.33295 13.7821 9.09122 13.2386 10.6972C13.1222 11.0412 13.2781 11.4181 13.6042 11.578L13.6249 11.5881C14.0176 11.7807 14.4888 11.5826 14.6289 11.1682Z" fill="url(#paint0_radial)"/>
<path d="M16.7892 12.2335C17.7116 9.73243 17.7455 6.9633 16.8653 4.43035C16.7317 4.04582 16.3083 3.84545 15.9251 3.98282L15.9249 3.98293C15.5463 4.11861 15.3476 4.53375 15.4796 4.91358C16.2494 7.12785 16.2182 9.54937 15.4091 11.7351C15.2792 12.0861 15.4398 12.4783 15.7758 12.6432C16.1682 12.8356 16.638 12.6435 16.7892 12.2335Z" fill="url(#paint1_radial)"/>
<path d="M10.0817 0.50163C9.57091 0.262373 8.9844 0.338056 8.55108 0.699179L4.50441 4.07138H1.80175C1.00874 4.07138 0.363617 4.71651 0.363617 5.50952V11.5814C0.363617 12.3744 1.00874 13.0195 1.80175 13.0195H4.50444L8.55111 16.3917C8.98488 16.7532 9.57146 16.8283 10.0818 16.5893C10.5926 16.3501 10.9099 15.851 10.9099 15.287V1.80396C10.9098 1.23989 10.5925 0.740888 10.0817 0.50163ZM4.19861 12.0671H1.80175C1.53744 12.0671 1.32237 11.8457 1.32237 11.5814V5.50952C1.32237 5.2452 1.53744 5.03014 1.80175 5.03014H4.19861V12.0671ZM9.95112 15.2869C9.95112 15.5697 9.73986 15.6907 9.67507 15.721C9.61032 15.7514 9.38215 15.8363 9.16485 15.6551L5.15737 12.3156V4.77529L9.16485 1.43571C9.38215 1.25462 9.61035 1.33951 9.67507 1.36984C9.73983 1.40017 9.95112 1.52111 9.95112 1.80396V15.2869Z" fill="url(#paint2_radial)"/>
<defs>
<radialGradient id="paint0_radial" cx="0" cy="0" r="1" gradientUnits="userSpaceOnUse" gradientTransform="translate(-8.85707 -15.9305) rotate(40.5513) scale(44.6171 6.72259)">
<stop offset="0.102095" stop-color="#969DC6"/>
<stop offset="0.921875" stop-color="#C7CBE7"/>
</radialGradient>
<radialGradient id="paint1_radial" cx="0" cy="0" r="1" gradientUnits="userSpaceOnUse" gradientTransform="translate(-12.0962 -21.5509) rotate(40.4437) scale(55.2722 8.44583)">
<stop offset="0.102095" stop-color="#969DC6"/>
<stop offset="0.921875" stop-color="#C7CBE7"/>
</radialGradient>
<radialGradient id="paint2_radial" cx="0" cy="0" r="1" gradientUnits="userSpaceOnUse" gradientTransform="translate(7.24161 106.727) rotate(-95.2036) scale(131.451 13.9442)">
<stop offset="0.102095" stop-color="#969DC6"/>
<stop offset="0.921875" stop-color="#C7CBE7"/>
</radialGradient>
</defs>
</svg>
